<svg id="Layer_1" data-name="Layer 1" xmlns="http://www.w3.org/2000/svg" viewBox="0 0 72.87 134.96"><path d="M53.52,135.24c-1.66-.66-2.17-1.91-2.17-3.64q.06-26.7,0-53.39V76.48H34.55C32,76.48,31,75.56,31,73V52.21c0-2.44,1-3.41,3.47-3.42H51.34V47.26c0-5.36-.11-10.72.1-16.07.3-7.75,2.55-14.85,7.76-20.8A27.3,27.3,0,0,1,77.32.89c6.44-.65,13-.45,19.47-.61h4.08c2,.07,3,1.08,3,3v20c0,2-1.09,3-3.18,3-4.61.07-9.23,0-13.83.21-2.43.1-4.78.8-6,3.2a9.79,9.79,0,0,0-1,3.9c-.12,5,0,9.92,0,15.09H99.4c2.71,0,3.65.93,3.65,3.64V72.88c0,2.56-.94,3.49-3.5,3.49H79.85v54.9c0,1.73-.42,3.1-2.09,3.86Z" transform="translate(-31 -0.28)"/></svg>