<svg id="Layer_1" data-name="Layer 1" xmlns="http://www.w3.org/2000/svg" viewBox="0 0 135.01 135.07"><path d="M34.8,0h65.91c1.38.22,2.78.36,4.14.67,15.29,3.44,25.1,12.7,29.29,27.81.55,2,.75,4,1.11,6.06v65.91c-.09.47-.14,1-.26,1.41-.91,3.51-1.34,7.24-2.84,10.49-6.72,14.56-18.28,22.34-34.33,22.57-20,.28-40.07.08-60.11.06a35.88,35.88,0,0,1-21.29-6.62C5.69,120.71.31,110.18.28,97Q.21,67.47.28,38A36.47,36.47,0,0,1,1,30.36c3.37-15.29,12.67-25,27.75-29.25C30.71.56,32.78.36,34.8,0ZM12.23,67.49V96.75a26.84,26.84,0,0,0,1.36,9.07C17.4,116.5,26.59,123,38.2,123c19.68,0,39.37.06,59.05-.05A28.87,28.87,0,0,0,106,121.6c10.8-3.64,17.23-13,17.24-24.66,0-19.63.07-39.27,0-58.91a28.74,28.74,0,0,0-1.35-8.78C118.27,18.51,109,12,97.37,12q-29.58-.08-59.17,0c-8.85,0-16,3.5-21.26,10.67a25.33,25.33,0,0,0-4.71,15.47q0,14.65,0,29.35Z" transform="translate(-0.24)"/><path d="M67.78,102.28a34.79,34.79,0,1,1,34.76-34.84A34.8,34.8,0,0,1,67.78,102.28ZM90.54,67.52A22.79,22.79,0,1,0,67.72,90.28h0A22.81,22.81,0,0,0,90.54,67.52Z" transform="translate(-0.24)"/><path d="M104,22.6a8.75,8.75,0,1,1-8.76,8.74v0A8.79,8.79,0,0,1,104,22.6Z" transform="translate(-0.24)"/></svg>