<svg id="Layer_1" data-name="Layer 1" xmlns="http://www.w3.org/2000/svg" viewBox="0 0 130.82 92.09"><path d="M131.12,45.76V82.57c-.08.53-.21,1.07-.24,1.61a46.39,46.39,0,0,1-2.32,12.63,19.36,19.36,0,0,1-10.62,11.7,37.89,37.89,0,0,1-13.64,2.95c-4.72.25-9.45.3-14.18.31q-29,0-58-.07a46.24,46.24,0,0,1-17.26-3,20.11,20.11,0,0,1-10.6-9.19A32.9,32.9,0,0,1,.56,84.35C.32,73.66.3,63,.3,52.28c0-4.21.2-8.43.5-12.63a22.77,22.77,0,0,1,2.83-9.72C6.42,25,11,22.8,16.17,21.49A67.76,67.76,0,0,1,33,19.7H96.15a81.89,81.89,0,0,1,18.15,1.58,21.75,21.75,0,0,1,10.26,4.82c3.7,3.37,5.14,7.81,5.81,12.58C130.69,41,130.88,43.4,131.12,45.76ZM50.63,65.19V78.6c0,4.29,3.08,6.19,6.86,4.22L83.61,69.19c1.72-.89,2.91-2.12,2.89-4.14s-1.17-3.17-2.85-4Q70.51,54.26,57.39,47.42c-3.62-1.87-6.75.06-6.76,4.14C50.62,56.08,50.63,60.63,50.63,65.19Z" transform="translate(-0.3 -19.68)"/></svg>